<svg width="202" height="202" viewBox="0 0 202 202" fill="none" xmlns="http://www.w3.org/2000/svg">
<path d="M34.8571 180.831C-1.66852 159.742 -1.66852 125.547 34.8571 104.475C71.3828 83.402 130.605 83.3858 167.143 104.475C203.681 125.563 203.669 159.758 167.143 180.831C130.617 201.903 71.3868 201.923 34.8571 180.831Z" fill="#F5F5F5"/>
<path d="M64.0908 181.848C79.9414 181.848 92.7909 174.43 92.7909 165.28C92.7909 156.13 79.9414 148.712 64.0908 148.712C48.2401 148.712 35.3906 156.13 35.3906 165.28C35.3906 174.43 48.2401 181.848 64.0908 181.848Z" fill="#E0E0E0"/>
<path d="M130.424 157.536C150.325 146.803 162.128 130.073 156.787 120.169C151.446 110.266 130.982 110.939 111.081 121.672C91.18 132.406 79.3769 149.136 84.7183 159.039C90.0597 168.943 110.523 168.27 130.424 157.536Z" fill="#E0E0E0"/>
<path d="M153.852 59.0531L153.787 59.0208L138.386 50.157L138.293 50.1126C131.098 46.4766 121.499 47.5714 111.173 54.2455C90.4316 67.6583 74.6271 98.532 75.8714 123.204C76.4896 135.498 81.2325 143.929 88.3954 147.638L88.456 147.671L103.861 156.538L103.933 156.579C111.129 160.215 120.736 159.136 131.07 152.454C151.811 139.041 167.616 108.167 166.371 83.4951C165.761 71.1933 161.018 62.7618 153.852 59.0531Z" fill="#37474F"/>
<path d="M103.331 156.252L88.4756 147.663L88.4029 147.618C81.2399 143.902 76.501 135.47 75.8789 123.193C75.3254 112.188 78.1655 99.9585 83.3124 88.602L83.4134 88.3516L98.717 97.4658C93.5619 108.822 90.7299 121.051 91.2834 132.056C91.8692 144.091 96.4222 152.422 103.331 156.252Z" fill="#263238"/>
<path d="M131.078 152.446C151.82 139.033 167.624 108.16 166.38 83.4873C165.135 58.815 147.311 49.6927 126.57 63.1055C105.828 76.5183 90.0197 107.392 91.264 132.06C92.5083 156.728 110.337 165.859 131.078 152.446Z" fill="#455A64"/>
<path d="M148.643 57.1377L122.646 110.696L117.05 104.636C115.382 102.899 113.099 101.885 110.691 101.813C108.284 101.741 105.944 102.616 104.175 104.25C102.405 105.884 101.347 108.147 101.228 110.552C101.109 112.958 101.938 115.314 103.537 117.116L118.279 133.086C119.9 134.847 122.146 135.903 124.537 136.027C124.706 136.027 124.876 136.027 125.046 136.027C125.492 136.026 125.937 135.994 126.379 135.93C127.863 135.714 129.271 135.138 130.481 134.252C131.691 133.366 132.666 132.197 133.32 130.848L163.135 69.4395C160.076 62.62 154.986 58.3941 148.643 57.1377Z" fill="#37474F"/>
<path d="M169.757 39.4994C169.595 39.4064 169.425 39.3176 169.256 39.2368C167.35 38.3134 165.156 38.1836 163.155 38.8759C161.154 39.5682 159.509 41.0259 158.582 42.9293L125.502 111.068L123.62 109.048C123.076 108.454 122.444 107.949 121.745 107.549C120.759 106.984 116.566 104.555 115.887 104.164C114.233 103.207 112.29 102.874 110.412 103.227C108.533 103.581 106.844 104.596 105.65 106.088C104.456 107.581 103.837 109.452 103.905 111.362C103.974 113.272 104.724 115.094 106.021 116.498L120.763 132.464C121.316 133.064 121.958 133.575 122.666 133.979C123.628 134.524 127.805 136.948 128.492 137.344C129.442 137.894 130.495 138.243 131.586 138.367C132.676 138.492 133.781 138.391 134.831 138.07C135.88 137.749 136.853 137.215 137.687 136.501C138.521 135.788 139.199 134.91 139.679 133.922L178.814 53.3121C179.694 51.4953 179.854 49.413 179.263 47.4829C178.672 45.5527 177.373 43.9175 175.627 42.9051L169.757 39.4994Z" fill="#296BEF"/>
<path opacity="0.15" d="M169.757 39.4994C169.595 39.4064 169.425 39.3176 169.256 39.2368C167.35 38.3134 165.156 38.1836 163.155 38.8759C161.154 39.5682 159.509 41.0259 158.582 42.9293L125.502 111.068L123.62 109.048C123.076 108.454 122.444 107.949 121.745 107.549C120.759 106.984 116.566 104.555 115.887 104.164C114.233 103.207 112.29 102.874 110.412 103.227C108.533 103.581 106.844 104.596 105.65 106.088C104.456 107.581 103.837 109.452 103.905 111.362C103.974 113.272 104.724 115.094 106.021 116.498L120.763 132.464C121.316 133.064 121.958 133.575 122.666 133.979C123.628 134.524 127.805 136.948 128.492 137.344C129.442 137.894 130.495 138.243 131.586 138.367C132.676 138.492 133.781 138.391 134.831 138.07C135.88 137.749 136.853 137.215 137.687 136.501C138.521 135.788 139.199 134.91 139.679 133.922L178.814 53.3121C179.694 51.4953 179.854 49.413 179.263 47.4829C178.672 45.5527 177.373 43.9175 175.627 42.9051L169.757 39.4994Z" fill="black"/>
<path opacity="0.15" d="M128.472 137.328C127.793 136.924 123.624 134.5 122.65 133.963C121.942 133.558 121.3 133.047 120.747 132.448L106.006 116.482C105.355 115.772 104.839 114.951 104.482 114.058L110.344 117.439C110.7 118.335 111.219 119.157 111.876 119.863L126.614 135.829C127.156 136.418 127.782 136.923 128.472 137.328Z" fill="black"/>
<path opacity="0.15" d="M166.298 43.8582C165.528 44.5493 164.899 45.3835 164.448 46.3145L130.423 116.4L125.502 111.068L158.581 42.929C159.032 41.9964 159.662 41.1617 160.436 40.4727L166.298 43.8582Z" fill="black"/>
<path d="M175.123 42.6227C173.217 41.7016 171.024 41.573 169.024 42.265C167.023 42.9571 165.379 44.4134 164.449 46.3153L130.425 116.401L123.625 109.032C122.17 107.554 120.197 106.7 118.123 106.652C116.05 106.603 114.039 107.363 112.516 108.772C110.993 110.18 110.078 112.126 109.965 114.197C109.852 116.268 110.549 118.302 111.909 119.868L126.647 135.838C127.529 136.792 128.631 137.517 129.857 137.949C131.083 138.381 132.396 138.507 133.682 138.317C134.967 138.127 136.187 137.626 137.235 136.857C138.284 136.088 139.128 135.076 139.696 133.907L178.832 53.2964C179.754 51.389 179.881 49.1935 179.186 47.1922C178.491 45.1908 177.029 43.5474 175.123 42.6227Z" fill="#296BEF"/>
<path d="M63.5207 50.5001C60.4382 50.5001 58.3293 51.3081 56.1396 54.4189C54.1196 57.2792 48.6091 66.8136 48.6091 66.8136C48.6091 66.8136 44.5691 58.5235 44.1651 56.8712C43.7611 55.2188 43.7853 54.4835 44.1651 53.7644C44.7211 52.9144 45.0698 51.9458 45.1832 50.9364C45.3407 48.9487 45.8255 47.2479 45.3811 47.1913C44.1489 47.1227 44.1004 48.7063 43.454 49.6396C43.3719 49.7297 43.2698 49.7992 43.1558 49.8424C43.0418 49.8856 42.9193 49.9014 42.7981 49.8884C42.6769 49.8754 42.5605 49.834 42.4582 49.7676C42.356 49.7012 42.2709 49.6117 42.2097 49.5063C41.939 48.9528 42.0845 48.0438 41.9552 47.3893C41.9902 47.0251 42.0482 46.6635 42.1289 46.3066C42.5956 46.3905 43.0722 46.4042 43.5429 46.347C44.0762 47.1833 44.4398 47.5347 45.1832 47.1954C45.2801 47.0419 44.864 45.9834 44.3752 45.1754C44.3018 45.0518 44.1828 44.9618 44.0439 44.9249C43.1476 44.6979 42.2123 44.6717 41.3048 44.8481C41.2361 44.8552 41.1697 44.876 41.1093 44.9093C41.0489 44.9426 40.9958 44.9878 40.9533 45.0421C40.6122 45.5418 40.3404 46.0854 40.1453 46.6581C40.0928 46.8318 39.9312 46.8277 39.8908 46.6783C39.4868 44.7269 39.4868 41.9555 39.4868 40.6587C39.4868 39.6365 37.996 39.4749 37.9435 40.9374C37.8549 42.8997 37.8886 44.8656 38.0445 46.8237C38.0445 47.0015 37.8667 47.0863 37.794 46.8924C37.5354 46.2015 36.9012 44.1129 36.6345 40.5092C36.5618 39.5396 34.9943 39.382 35.0185 40.7435C35.0799 43.1573 35.3941 45.5581 35.9558 47.9064C36.0043 48.0761 35.8467 48.2256 35.7296 48.0317C34.9941 46.6144 34.4066 45.1253 33.9762 43.5877C33.6409 42.4161 32.0774 42.715 32.3602 44.1735C32.849 46.7873 33.6247 50.0921 34.7842 52.4555C36.0204 54.9805 37.087 56.245 37.7011 58.2286C38.3152 60.2123 40.8563 71.4475 43.5752 75.8269C45.7043 79.2609 48.1404 78.9417 50.7624 77.1318C53.3844 75.3219 62.7531 62.2686 62.7531 62.2686L63.5207 50.5001Z" fill="#FFAB91"/>
<path d="M48.6094 66.8098C48.6094 66.8098 49.9224 69.0358 50.1244 70.8175C50.4581 69.0876 50.1262 67.2955 49.1952 65.7998L48.6094 66.8098Z" fill="#FF9372"/>
<path d="M64.1752 50.5002C62.6077 50.3386 60.6564 50.2861 58.4829 51.6557C56.3094 53.0252 55.5498 54.9321 54.4954 56.6006C53.441 58.2691 49.7969 64.1797 49.7969 64.1797C49.7969 64.1797 51.1341 69.7912 56.4508 70.9467L64.4136 60.1437L64.1752 50.5002Z" fill="#455A64"/>
<path d="M71.3139 149.169C71.7179 149.117 72.2552 150.495 72.2633 150.943C72.2714 151.391 71.8189 152.357 71.225 153.262C70.4312 154.339 69.7731 155.51 69.2656 156.748C68.8091 157.993 68.3889 158.809 67.1163 160.437C65.7023 162.251 62.3815 165.285 57.3395 163.968C56.1073 163.645 55.4933 163.257 55.0448 162.808C54.8481 162.61 54.7109 162.36 54.6487 162.087C54.5866 161.814 54.6021 161.53 54.6933 161.265L71.3139 149.169Z" fill="#263238"/>
<path d="M61.4083 147.594V147.638C61.3505 148.015 61.3615 148.4 61.4406 148.773C61.5792 149.886 61.4806 151.015 61.1512 152.087C60.8219 153.159 60.2692 154.148 59.5297 154.991C58.8274 155.724 58.0346 156.365 57.1704 156.898C54.6171 158.514 54.3424 159.617 54.7019 161.265C55.5584 163.184 61.3477 164.352 64.6767 161.495C66.1131 160.38 67.2111 158.888 67.8481 157.185C68.3312 155.965 68.8926 154.777 69.5287 153.629C70.1711 152.417 71.3912 151.052 71.4275 149.804C71.4477 149.117 70.769 147.84 70.1105 146.79C69.5045 145.824 68.8783 144.907 68.3329 145.012L68.4864 145.558C68.0299 146.03 67.3714 146.208 66.9754 146.77C66.4826 147.452 66.4987 148.386 66.1957 149.153C66.1858 149.193 66.1673 149.229 66.1414 149.261C66.1156 149.292 66.0831 149.318 66.0462 149.335C66.0036 149.342 65.9597 149.335 65.9212 149.316C65.8827 149.296 65.8514 149.265 65.8321 149.226C65.7991 149.147 65.784 149.061 65.7877 148.975L65.7513 147.8C65.7695 147.574 65.7096 147.348 65.5816 147.161C65.2665 146.806 64.4908 146.846 64.0586 146.83C63.4767 146.835 62.8955 146.87 62.3173 146.935C62.1169 146.915 61.9161 146.968 61.7517 147.085C61.5866 147.214 61.4664 147.392 61.4083 147.594Z" fill="#37474F"/>
<path d="M52.8503 124.105C54.1956 128.528 60.4858 143.844 60.8616 144.765L62.114 147.803C62.9387 148.074 63.8224 148.112 64.6673 147.912C64.8006 149.379 65.0228 151.678 65.1076 152.837C65.1399 154.182 65.2571 155.847 64.9662 157.176C64.7198 158.307 64.4329 159.495 64.2188 160.63C64.1259 161.131 64.033 161.636 63.9562 162.141C63.8259 162.67 63.8698 163.227 64.0814 163.729C64.2103 163.948 64.3805 164.14 64.5824 164.295C65.4797 164.999 66.6138 165.332 67.7498 165.224C68.3504 165.195 68.9316 165.002 69.4304 164.666C70.4081 163.967 70.7515 162.751 71.2484 161.717C71.7898 160.598 71.616 160.473 71.6524 159.273C71.6847 158.433 71.9191 156.299 72.2544 154.069C72.5897 151.839 74.036 144.002 74.7309 136.192C75.0141 132.724 75.0141 129.238 74.7309 125.769C80.2495 110.777 82.7058 101.86 83.429 96.8831C84.1602 91.825 83.8088 90.0151 83.7158 87.1104L56.8781 87.7568C54.7288 101.63 51.0444 118.174 52.8503 124.105Z" fill="#9E6767"/>
<path d="M52.4308 113.035C52.9843 107.937 56.7981 88.3389 56.7981 88.3389H83.8338C83.8338 88.3389 84.0075 92.1001 83.959 93.8292C83.9105 95.5583 83.353 98.7136 82.3874 102.717C81.4219 106.721 77.8424 118.021 77.1354 119.685C76.4284 121.35 75.1154 126.178 75.1154 126.178C75.778 135.243 74.0529 143.38 72.7601 154.195C72.7601 154.195 72.3844 155.653 68.5545 155.367C64.8296 155.084 64.0782 153.71 64.0782 153.71L63.8317 144.382C63.8317 144.382 61.8117 145.004 60.5997 144.721C60.5997 144.721 52.5965 124.961 52.2086 123.774C51.8208 122.586 51.8774 118.134 52.4308 113.035Z" fill="#296BEF"/>
<path opacity="0.45" d="M52.4308 113.035C52.9843 107.937 56.7981 88.3389 56.7981 88.3389H83.8338C83.8338 88.3389 84.0075 92.1001 83.959 93.8292C83.9105 95.5583 83.353 98.7136 82.3874 102.717C81.4219 106.721 77.8424 118.021 77.1354 119.685C76.4284 121.35 75.1154 126.178 75.1154 126.178C75.778 135.243 74.0529 143.38 72.7601 154.195C72.7601 154.195 72.3844 155.653 68.5545 155.367C64.8296 155.084 64.0782 153.71 64.0782 153.71L63.8317 144.382C63.8317 144.382 61.8117 145.004 60.5997 144.721C60.5997 144.721 52.5965 124.961 52.2086 123.774C51.8208 122.586 51.8774 118.134 52.4308 113.035Z" fill="black"/>
<path opacity="0.2" d="M63.9011 101.113C60.0712 97.6632 59.2188 94.916 59.2188 94.916C61.1443 97.0853 63.4243 98.9118 65.9615 100.317C65.9615 100.317 62.3255 119.516 62.5921 123.463C62.8588 127.41 63.8324 144.382 63.8324 144.382C63.8324 144.543 61.2549 126.432 61.1781 124.99C61.0044 121.172 63.9011 101.113 63.9011 101.113Z" fill="black"/>
<path d="M72.3152 163.806C72.6909 163.915 72.6424 165.038 72.4727 165.458C72.0523 166.191 71.4569 166.809 70.7396 167.256C69.6884 167.972 68.8117 168.915 68.1742 170.015C67.1368 171.602 65.7648 172.942 64.1544 173.942C62.0093 175.159 59.4812 175.513 57.0844 174.932C54.5472 174.213 54.3129 173.591 54.3331 172.633L72.3152 163.806Z" fill="#263238"/>
<path d="M64.4791 157.932C63.8125 161.164 62.653 163.539 59.9664 165.535C57.8252 167.127 56.2739 167.935 54.5649 169.353C53.8418 169.959 53.7812 171.248 54.3347 172.637C55.4901 173.563 57.1303 174.096 59.3321 174.092C61.7965 174.092 62.7419 173.652 64.1559 172.686C64.8505 172.211 65.4972 171.67 66.087 171.07C67.2707 169.882 68.107 168.416 68.9473 167.474C69.7877 166.533 71.6501 165.572 72.1793 164.436C72.4702 163.814 72.349 162.372 72.1551 161.144C71.9773 160.017 72.3207 158.037 71.7794 157.912L71.7026 158.72C71.6582 158.901 71.5451 158.994 71.1653 159.124C70.824 159.198 70.4719 159.207 70.127 159.152C70.0045 159.108 69.8711 159.103 69.7457 159.138C69.6203 159.174 69.5092 159.248 69.4281 159.35C69.0645 159.778 68.9675 160.384 68.4989 160.74C68.4686 160.766 68.4327 160.786 68.3939 160.796C68.3758 160.806 68.3554 160.811 68.3347 160.811C68.3141 160.81 68.294 160.804 68.2767 160.792C68.2642 160.773 68.2559 160.751 68.2524 160.728C68.2489 160.705 68.2503 160.681 68.2565 160.659L68.3898 159.447C68.4059 159.326 68.4059 159.204 68.3898 159.083C68.3645 158.971 68.3153 158.865 68.2456 158.773C68.1759 158.681 68.0873 158.605 67.9858 158.55C67.6456 158.352 67.28 158.201 66.8991 158.102C66.5027 157.994 66.0968 157.925 65.6871 157.896C65.285 157.844 64.8773 157.856 64.4791 157.932Z" fill="#455A64"/>
<path d="M81.3945 51.6593C81.3945 51.6593 82.5055 53.1865 83.4145 56.3336C84.521 61.5023 85.0896 66.7716 85.1113 72.0573C85.1113 79.196 84.1498 90.7625 84.1498 90.7625C75.8637 94.9156 62.4994 92.4593 56.6172 88.4072C56.8555 87.1225 57.0575 80.3676 57.5221 75.9115C57.8332 68.2678 58.0918 64.2641 58.1443 60.8625C58.2534 54.0672 61.6349 50.5564 64.2043 50.5039L70.6925 50.6049L81.3945 51.6593Z" fill="#296BEF"/>
<path d="M83.4387 88.666C82.2065 89.6801 79.8027 91.6273 79.3461 92.6091C78.8371 93.7322 78.5381 95.4371 78.1947 96.0754C77.8513 96.7137 78.3685 97.0369 79.0795 96.8066C79.7905 96.5763 80.2147 95.9744 80.7642 94.5038C81.3136 93.0333 82.8407 91.8819 82.8407 91.8819L83.4387 88.666Z" fill="#FF9372"/>
<path d="M78.9367 101.889C79.2317 102.459 79.9185 102.463 80.5527 102.512C81.326 102.6 82.1094 102.512 82.8434 102.253C83.7256 101.998 84.4993 101.46 85.0452 100.722C85.6674 99.825 85.829 98.7019 86.1845 97.6717C86.9279 95.5103 89.1418 93.9509 89.5054 91.6602C89.6549 90.7148 89.6549 89.5998 89.9094 89.014C90.0669 88.6666 93.707 82.4005 95.0079 79.6856C96.2522 77.0758 97.1854 75.8476 96.0542 72.7126C94.923 69.5776 91.0729 58.5443 88.3459 54.7104C86.8026 52.5368 84.3503 51.9147 81.3769 51.6602C79.1145 57.5505 81.7445 63.6388 81.7445 63.6388L87.748 75.1851C87.748 75.1851 85.4209 83.1358 83.9665 87.5556C83.5625 88.7676 82.7545 89.5432 81.8294 90.9047C81.4254 91.4946 80.5123 92.5207 80.1891 93.1631C79.7851 93.9711 79.7851 94.5044 79.5831 95.6477C79.268 97.4697 78.7792 101.619 78.9367 101.889Z" fill="#FFAB91"/>
<path d="M81.0739 51.6279C82.6374 51.6885 84.8836 51.9552 86.2249 52.6339C87.5662 53.3126 88.4994 54.1489 90.0427 57.2435C91.586 60.3382 93.8443 66.3497 93.8443 66.3497C93.8443 66.3497 93.0969 70.8866 85.9219 72.0622L81.0739 63.1217C81.0739 63.1217 78.9125 57.5506 81.0739 51.6279Z" fill="#455A64"/>
<path d="M62.4341 37.1885C62.6461 37.5718 62.8298 37.9701 62.9836 38.3803C63.2226 38.916 63.528 39.4196 63.8926 39.8791C64.8218 40.9497 66.1267 41.7335 67.3185 42.493C68.0376 42.9536 68.8618 43.3858 69.7425 43.2606C70.6232 43.1354 71.6049 43.3252 72.5139 43.406L75.6934 43.6929L75.5157 47.034C75.5157 47.034 75.9197 46.1492 76.4489 45.0907C76.9095 44.1817 78.8406 39.5721 78.8487 39.5519C79.8061 37.2693 80.9414 34.2231 79.7981 31.8234C79.5381 31.2324 79.104 30.7349 78.5537 30.3972C78.6645 30.0283 78.7002 29.6409 78.6588 29.258C78.5952 28.7143 78.4105 28.1918 78.1182 27.7289C77.826 27.266 77.4336 26.8746 76.9701 26.5835C76.0652 25.972 75.0452 25.5513 73.9724 25.3472C72.5495 25.0199 71.0935 24.8586 69.6334 24.8665C68.2029 24.9101 66.7785 25.0737 65.3753 25.3553C64.5925 25.4999 63.7995 25.5823 63.0038 25.6018C62.661 25.6242 62.3168 25.608 61.9776 25.5533C61.5561 25.4273 61.142 25.2776 60.7373 25.1048C60.7022 25.0901 60.6644 25.0825 60.6262 25.0825C60.5881 25.0825 60.5503 25.0901 60.5151 25.1048C60.4831 25.1262 60.456 25.1542 60.4357 25.1869C60.4155 25.2197 60.4026 25.2565 60.398 25.2947C60.2929 25.7991 60.2973 26.3201 60.4109 26.8227C60.5245 27.3252 60.7447 27.7974 61.0565 28.2076C60.8748 28.1828 60.6978 28.131 60.5313 28.054C60.3423 27.9666 60.16 27.8653 59.9859 27.751C59.6894 27.5523 59.4297 27.3035 59.2183 27.0158C59.1892 26.9707 59.1447 26.9377 59.0931 26.9228C59.0123 26.9228 58.9476 26.9794 58.8991 27.044C58.6811 27.3683 58.5326 27.7343 58.4631 28.1188C58.3936 28.5033 58.4045 28.8981 58.4951 29.2782C58.6733 30.0411 59.0337 30.7494 59.5455 31.3426C59.2959 31.746 59.1517 32.2057 59.1263 32.6794C59.1009 33.1532 59.195 33.6257 59.4001 34.0534C59.5798 34.4329 59.8215 34.7797 60.1152 35.0796C60.4788 35.4513 60.9232 35.7543 61.2908 36.1017C61.7124 36.4189 62.096 36.7835 62.4341 37.1885Z" fill="#37474F"/>
<path d="M72.1184 31.6212C72.1067 32.2245 72.1843 32.8263 72.3487 33.4069C72.5404 33.9169 72.8489 34.3749 73.2496 34.7441C73.7028 35.1286 74.1219 35.5517 74.502 36.0086C74.9123 36.7198 75.1529 37.5162 75.205 38.3357C75.2073 38.577 75.2636 38.8148 75.3699 39.0315C75.4762 39.2483 75.6296 39.4384 75.819 39.5881C76.6836 40.1254 77.2007 39.0871 77.6613 38.5781C78.2552 38.0286 80.0206 37.3661 80.8367 39.2325C81.6811 41.1717 80.1216 43.7412 78.7036 44.1371C76.2594 44.8199 75.7261 43.1554 75.7261 43.1554L75.2575 51.8818C73.8798 54.4957 70.6398 55.3279 68.5107 54.9118C66.6725 54.5522 65.6625 53.2635 67.3916 51.397L67.4845 48.7387C67.4845 48.7387 65.2787 49.0013 64.2162 48.7993C62.4426 48.468 61.5659 46.9611 61.0852 45.0178C60.3216 41.8949 59.9701 38.6104 60.9195 31.5767C61.3518 31.3384 63.1011 32.6999 65.7675 32.8817C67.9591 33.0361 70.152 32.6009 72.1184 31.6212Z" fill="#FFAB91"/>
<path d="M67.468 48.7311C67.468 48.7311 71.4676 48.0604 72.8816 47.3655C73.7114 46.9659 74.4013 46.3253 74.8612 45.5273C74.6251 46.3332 74.2294 47.0833 73.6977 47.7332C72.6392 48.9977 67.4316 49.7895 67.4316 49.7895L67.468 48.7311Z" fill="#FF9372"/>
<path d="M69.5488 34.7445L71.4113 35.3142C71.4825 35.0598 71.4524 34.7876 71.3274 34.5549C71.2024 34.3222 70.9921 34.1469 70.7406 34.0658C70.6178 34.0298 70.489 34.0189 70.3619 34.0338C70.2348 34.0486 70.1119 34.0889 70.0007 34.1523C69.8895 34.2156 69.7922 34.3007 69.7145 34.4024C69.6369 34.5042 69.5805 34.6205 69.5488 34.7445Z" fill="#263238"/>
<path d="M68.9014 43.5674L66.1582 44.4966C66.2116 44.6799 66.3013 44.8507 66.4219 44.9987C66.5426 45.1467 66.6917 45.269 66.8605 45.3583C67.0293 45.4476 67.2144 45.5021 67.4046 45.5186C67.5949 45.535 67.7865 45.5131 67.9681 45.4541C68.3372 45.321 68.6405 45.0503 68.8145 44.6986C68.9885 44.3469 69.0196 43.9415 68.9014 43.5674Z" fill="#874C4C"/>
<path d="M68.6807 44.2383C68.3226 44.2385 67.9748 44.3577 67.6918 44.5771C67.4088 44.7965 67.2067 45.1036 67.1172 45.4503C67.3941 45.5412 67.6928 45.5412 67.9696 45.4503C68.2252 45.3599 68.4512 45.2015 68.6235 44.9923C68.7958 44.783 68.9077 44.5307 68.9473 44.2625C68.8593 44.2465 68.7701 44.2384 68.6807 44.2383Z" fill="#F28F8F"/>
<path d="M61.2345 35.0394L63.1293 34.793C63.1149 34.6703 63.0761 34.5518 63.0152 34.4443C62.9542 34.3369 62.8724 34.2427 62.7745 34.1674C62.6766 34.0921 62.5646 34.0372 62.4452 34.0059C62.3257 33.9745 62.2012 33.9674 62.0789 33.985C61.8291 34.0174 61.6016 34.1453 61.4441 34.342C61.2867 34.5386 61.2115 34.7886 61.2345 35.0394Z" fill="#263238"/>
<path d="M72.8809 35.8477L79.1307 37.9767C78.7805 37.9808 78.4359 38.0652 78.1235 38.2235C77.8111 38.3818 77.5393 38.6098 77.3289 38.8898L72.9051 37.2091L72.8809 35.8477Z" fill="#263238"/>
<path d="M62.1679 38.2877C62.1608 38.3883 62.1739 38.4892 62.2064 38.5847C62.2389 38.6801 62.2901 38.768 62.3572 38.8433C62.4242 38.9186 62.5056 38.9797 62.5966 39.0231C62.6876 39.0664 62.7863 39.0911 62.887 39.0957C62.9873 39.0968 63.0868 39.0781 63.1798 39.0407C63.2729 39.0033 63.3577 38.948 63.4293 38.8778C63.501 38.8077 63.5581 38.7241 63.5975 38.6319C63.6368 38.5396 63.6576 38.4405 63.6587 38.3403C63.6658 38.2397 63.6527 38.1388 63.6202 38.0434C63.5877 37.9479 63.5364 37.86 63.4694 37.7847C63.4024 37.7094 63.321 37.6483 63.23 37.6049C63.139 37.5616 63.0402 37.5369 62.9395 37.5323C62.8393 37.5312 62.7398 37.5499 62.6467 37.5873C62.5537 37.6247 62.4689 37.68 62.3972 37.7502C62.3256 37.8203 62.2685 37.9039 62.2291 37.9962C62.1897 38.0884 62.169 38.1875 62.1679 38.2877Z" fill="#263238"/>
<path d="M69.3066 38.2876C69.3075 38.4342 69.3515 38.5773 69.4331 38.6991C69.5146 38.8209 69.6302 38.916 69.7655 38.9726C69.9007 39.0292 70.0496 39.0448 70.1936 39.0174C70.3376 38.99 70.4704 38.9209 70.5755 38.8186C70.6805 38.7164 70.7531 38.5854 70.7843 38.4422C70.8155 38.299 70.8039 38.1497 70.7509 38.013C70.6979 37.8763 70.6059 37.7582 70.4863 37.6735C70.3667 37.5887 70.2248 37.5409 70.0783 37.5362C69.8765 37.534 69.682 37.6118 69.5374 37.7527C69.3928 37.8935 69.3098 38.0858 69.3066 38.2876Z" fill="#263238"/>
<path d="M58.478 36.2997C58.5238 36.6264 58.6642 36.9326 58.882 37.1804C58.9571 37.2726 59.0109 37.3802 59.0396 37.4955C59.185 38.0975 59.3103 39.2367 59.5971 39.8751C59.7919 40.3895 60.1438 40.8296 60.6028 41.1327C61.0619 41.4359 61.6048 41.5867 62.1544 41.5638C62.4472 41.5748 62.7402 41.5504 63.0271 41.4911H63.0917C63.3408 41.4324 63.5802 41.3386 63.8027 41.2123L63.8431 41.184L63.9037 41.1477L63.9805 41.0951L64.0492 41.0386L64.1259 40.978C64.1529 40.9597 64.1773 40.9379 64.1987 40.9133C64.2475 40.8693 64.2934 40.822 64.336 40.7719C64.5744 40.5052 64.7669 40.2008 64.9057 39.871C65.2773 39.0388 65.1804 37.8753 65.7864 37.7379H65.8591H65.9399C66.7479 37.7379 66.6752 39.0186 67.1519 39.9235C67.6286 40.8285 68.3639 41.7133 70.1698 41.7375H70.4001C70.4619 41.7416 70.524 41.7416 70.5859 41.7375C70.7314 41.7286 70.8759 41.7084 71.0182 41.6769L71.1515 41.6446C71.1952 41.6349 71.2384 41.6227 71.2808 41.6082L71.3656 41.584C71.5348 41.5244 71.6973 41.4472 71.8504 41.3537C71.9067 41.3211 71.9607 41.2846 72.012 41.2446C72.1123 41.1712 72.2056 41.0887 72.2908 40.9982C72.5211 40.7528 72.7058 40.4682 72.8362 40.1579C73.1149 39.5317 73.1877 38.3924 73.325 37.7985C73.3491 37.6765 73.3957 37.5601 73.4624 37.4551C73.6781 37.2186 73.8187 36.9233 73.8664 36.6067C73.876 36.4445 73.8323 36.2836 73.7418 36.1486C73.6513 36.0136 73.5191 35.912 73.3654 35.8593L72.9251 35.8027C71.5111 35.629 69.6688 35.5563 68.5659 35.8553C67.1842 36.231 66.7035 36.6633 65.9318 36.6633C65.1602 36.6633 64.7441 36.1865 63.4311 35.7583C62.3887 35.4189 60.6637 35.4311 59.3466 35.5523L58.9426 35.5927C58.7989 35.6441 58.6759 35.7409 58.5921 35.8684C58.5082 35.996 58.4682 36.1474 58.478 36.2997ZM67.5761 37.1683C67.6851 37.0329 67.8232 36.9239 67.9801 36.8491C68.0016 36.8334 68.0246 36.8199 68.0488 36.8087H68.0892C68.1498 36.7764 68.2144 36.7441 68.2831 36.7158L68.4649 36.6431C68.6577 36.5698 68.8547 36.5077 69.0547 36.4572L69.2891 36.4007C69.4911 36.3603 69.6931 36.3279 69.8951 36.3077C69.9435 36.3039 69.9921 36.3039 70.0405 36.3077C71.3697 36.1987 72.2019 36.5138 72.5049 36.7845C72.8079 37.0551 72.6746 38.2995 72.5493 38.9257V38.9701C72.5493 38.9701 72.5493 39.0024 72.5493 39.0186C72.5493 39.0953 72.517 39.1802 72.4928 39.2731C72.4685 39.366 72.4645 39.3741 72.4483 39.4266C72.4201 39.5115 72.3918 39.5963 72.3595 39.6852C72.3477 39.7155 72.3342 39.7452 72.3191 39.7741C72.3134 39.792 72.3067 39.8095 72.2989 39.8266L72.2706 39.8872L72.2342 39.9599L72.1898 40.0447C72.1898 40.073 72.1534 40.1013 72.1332 40.1296C72.1168 40.1607 72.0978 40.1904 72.0767 40.2185C71.8683 40.5131 71.5873 40.749 71.2611 40.9033C70.9348 41.0576 70.5742 41.1251 70.2142 41.0992C69.8525 41.1189 69.4907 41.0622 69.1524 40.9327C68.8141 40.8033 68.5069 40.6039 68.2508 40.3477C67.9318 39.9898 67.7106 39.5557 67.6084 39.0873C67.4105 38.3803 67.3175 37.548 67.5761 37.1683ZM59.7466 36.5178C59.8427 36.4324 59.9518 36.3629 60.0698 36.3118H60.094L60.2395 36.2552L60.3283 36.2269H60.4011H60.4495H60.4697H60.5425C60.6354 36.2269 60.7364 36.1906 60.8495 36.1744H61.0151H61.5525C61.7464 36.1744 61.9565 36.2027 62.1665 36.231C63.1159 36.3683 64.1098 36.8087 64.3683 37.2006C64.6269 37.5925 64.5703 38.4126 64.4451 39.0953C64.4179 39.2547 64.3774 39.4115 64.3239 39.564C64.3227 39.5761 64.3227 39.5883 64.3239 39.6003C64.3239 39.6003 64.3239 39.6286 64.3239 39.6448V39.6771L64.2997 39.7337L64.2512 39.8468C64.2512 39.8791 64.2189 39.9155 64.1987 39.9478C64.1994 39.9585 64.1994 39.9693 64.1987 39.9801L64.1583 40.0488L64.1219 40.1053C63.9064 40.4229 63.6078 40.6752 63.2587 40.8348C62.9097 40.9944 62.5235 41.0551 62.1423 41.0103C61.7973 41.0029 61.4581 40.9202 61.1485 40.7679C60.2031 40.2912 59.9607 39.2287 59.8516 38.7479C59.6496 38.0247 59.4638 36.7845 59.7466 36.5138V36.5178Z" fill="#263238"/>
<path d="M66.1592 37.7578L66.0178 42.9532L63.1211 42.1129L65.8238 37.7134C65.9375 37.7025 66.0522 37.7177 66.1592 37.7578Z" fill="#FF9372"/>
<path d="M106.664 38.4159C114.93 38.4159 121.632 32.5464 121.632 25.3061C121.632 18.0657 114.93 12.1963 106.664 12.1963C98.3968 12.1963 91.6953 18.0657 91.6953 25.3061C91.6953 32.5464 98.3968 38.4159 106.664 38.4159Z" fill="#296BEF"/>
<path d="M94.717 32.8896C94.6322 34.647 93.1454 37.7902 90.4588 38.9496C90.4229 38.9649 90.3928 38.9911 90.3726 39.0244C90.3524 39.0578 90.3432 39.0967 90.3463 39.1356C90.3494 39.1745 90.3647 39.2114 90.39 39.2411C90.4153 39.2708 90.4492 39.2918 90.4871 39.3011C92.0229 39.6415 93.6247 39.5261 95.0959 38.9692C96.567 38.4123 97.8437 37.4381 98.7691 36.1661L94.717 32.8896Z" fill="#296BEF"/>
<path d="M96.5153 24.2675C96.5491 23.6929 96.6859 23.1291 96.9193 22.603C97.1392 22.0883 97.4671 21.6267 97.8808 21.2496C98.3178 20.8497 98.8282 20.5383 99.3837 20.3326C100.716 19.88 102.16 19.88 103.492 20.3326C104.053 20.5374 104.569 20.8488 105.011 21.2496C105.423 21.6345 105.748 22.1028 105.965 22.6232C106.198 23.1493 106.335 23.7131 106.369 24.2877C106.389 24.7402 106.397 25.2129 106.397 25.7058C106.397 26.1986 106.397 26.6632 106.369 27.0915C106.335 27.666 106.198 28.2298 105.965 28.756C105.742 29.2717 105.415 29.7354 105.003 30.1174C104.564 30.5221 104.047 30.834 103.484 31.0345C102.15 31.4761 100.71 31.4761 99.3756 31.0345C98.815 30.8344 98.3009 30.5224 97.8646 30.1174C97.4516 29.7366 97.1239 29.2726 96.9031 28.756C96.6697 28.2298 96.5329 27.666 96.4991 27.0915C96.4789 26.6632 96.4668 26.1986 96.4668 25.7058C96.4668 25.2129 96.4951 24.72 96.5153 24.2675ZM103.424 26.9945C103.424 26.8046 103.444 26.5905 103.456 26.3643C103.468 26.138 103.456 25.8956 103.456 25.6532C103.456 25.4108 103.456 25.1765 103.456 24.9503C103.456 24.724 103.432 24.5463 103.424 24.3443C103.406 24.0961 103.35 23.8521 103.258 23.6211C103.171 23.4052 103.042 23.2089 102.878 23.0434C102.706 22.8741 102.499 22.7433 102.272 22.6596C101.721 22.4712 101.123 22.4712 100.571 22.6596C100.344 22.7442 100.136 22.8749 99.9614 23.0434C99.7989 23.209 99.6712 23.4054 99.5857 23.6211C99.4933 23.8521 99.4374 24.0961 99.42 24.3443C99.3952 24.5453 99.3817 24.7477 99.3796 24.9503C99.3796 25.1765 99.3796 25.4108 99.3796 25.6532C99.3796 25.8956 99.3796 26.13 99.3796 26.3643C99.3817 26.5749 99.3952 26.7853 99.42 26.9945C99.4445 27.4801 99.6357 27.9424 99.9614 28.3035C100.155 28.4866 100.385 28.6272 100.636 28.7163C100.887 28.8053 101.154 28.8409 101.42 28.8206C101.684 28.8417 101.95 28.8066 102.2 28.7175C102.45 28.6283 102.679 28.4872 102.87 28.3035C103.193 27.9395 103.387 27.4797 103.424 26.9945Z" fill="#FAFAFA"/>
<path d="M117.564 30.6673C117.597 30.7187 117.613 30.7798 117.608 30.841C117.609 30.8861 117.6 30.9309 117.583 30.9726C117.565 31.0143 117.54 31.052 117.507 31.0834C117.476 31.1164 117.439 31.1427 117.397 31.1608C117.355 31.1788 117.31 31.1882 117.265 31.1884H114.736C114.608 31.1931 114.481 31.1594 114.372 31.0915C114.267 31.0148 114.172 30.9252 114.089 30.8248L111.1 27.0676V30.7561C111.098 30.8651 111.056 30.9694 110.981 31.0487C110.906 31.1279 110.805 31.1763 110.696 31.1844H108.627C108.571 31.1848 108.516 31.1735 108.464 31.1512C108.413 31.1289 108.367 31.0962 108.328 31.0551C108.288 31.0166 108.256 30.9702 108.235 30.9187C108.213 30.8673 108.202 30.8119 108.203 30.7561V20.5794C108.202 20.5236 108.213 20.4682 108.235 20.4168C108.256 20.3653 108.288 20.3189 108.328 20.2804C108.367 20.2393 108.413 20.2066 108.464 20.1843C108.516 20.1621 108.571 20.1508 108.627 20.1511H110.696C110.805 20.1592 110.906 20.2076 110.981 20.2869C111.056 20.3661 111.098 20.4704 111.1 20.5794V23.9043L113.875 20.4986C113.939 20.4225 114.006 20.3497 114.077 20.2804C114.198 20.1828 114.351 20.1363 114.506 20.1511H116.962C117.008 20.1508 117.054 20.1599 117.096 20.178C117.138 20.1961 117.177 20.2227 117.208 20.2562C117.241 20.2876 117.267 20.3253 117.284 20.3669C117.301 20.4086 117.31 20.4534 117.309 20.4986C117.314 20.5603 117.296 20.6216 117.261 20.6723L113.382 25.4516L117.564 30.6673Z" fill="#FAFAFA"/>
<path d="M145.285 37.7013L143.019 38.3841L141.383 32.918L143.641 32.2393L145.285 37.7013Z" fill="#E0E0E0"/>
<path d="M152.36 32.8496C152.379 33.0713 152.327 33.2933 152.211 33.4835C152.096 33.6737 151.923 33.8224 151.718 33.908C151.865 34.0751 151.974 34.2723 152.037 34.4858C152.166 34.8898 151.823 35.4756 151.14 35.6978L145.957 37.2572L144.434 32.1789C144.434 32.1789 145.31 29.9367 145.355 29.5974C145.399 29.258 144.882 28.0137 144.809 27.7794C144.737 27.545 145.577 27.238 146.239 27.5046C146.394 27.5731 146.531 27.6737 146.643 27.7996C146.882 28.0533 147.082 28.3405 147.237 28.652C147.457 29.0959 147.565 29.5869 147.552 30.0822L150.692 29.1247C150.908 29.0463 151.146 29.0463 151.362 29.1247C151.504 29.1807 151.629 29.2725 151.725 29.391C151.821 29.5096 151.884 29.6509 151.91 29.8013C151.935 29.9517 151.921 30.1061 151.869 30.2494C151.817 30.3928 151.728 30.5203 151.613 30.6195C151.8 30.6059 151.985 30.6555 152.141 30.7603C152.296 30.865 152.412 31.0189 152.469 31.1972C152.517 31.4045 152.492 31.622 152.397 31.8127C152.303 32.0035 152.146 32.1557 151.952 32.2436C152.162 32.3849 152.308 32.6022 152.36 32.8496Z" fill="#E0E0E0"/>
<path d="M177.76 94.3781L174.855 93.6792L176.548 86.6738L179.453 87.3728L177.76 94.3781Z" fill="#E0E0E0"/>
<path d="M188.576 93.5906C188.455 93.8444 188.257 94.0534 188.011 94.1877C187.764 94.3219 187.481 94.3746 187.202 94.338C187.255 94.6137 187.248 94.8974 187.182 95.1702C187.053 95.7156 186.314 96.1156 185.441 95.9015L178.791 94.2855L180.359 87.777C180.359 87.777 182.746 85.8903 183.009 85.5469C183.271 85.2035 183.498 83.5269 183.57 83.2159C183.643 82.9048 184.754 83.1149 185.308 83.8299C185.442 84.0037 185.536 84.2052 185.582 84.4198C185.68 84.8474 185.716 85.2869 185.687 85.7247C185.643 86.3501 185.449 86.9557 185.122 87.4902L189.137 88.4598C189.422 88.5202 189.677 88.679 189.857 88.9082C189.956 89.0391 190.027 89.1896 190.064 89.3498C190.101 89.51 190.103 89.6762 190.071 89.8374C190.017 90.0498 189.905 90.2429 189.747 90.395C189.589 90.547 189.392 90.652 189.178 90.6979C189.39 90.802 189.562 90.9746 189.664 91.1878C189.767 91.401 189.795 91.6426 189.743 91.8736C189.662 92.129 189.495 92.3485 189.27 92.4955C189.046 92.6426 188.778 92.7083 188.511 92.6816C188.65 92.9646 188.673 93.2907 188.576 93.5906Z" fill="#E0E0E0"/>
<path d="M31.0352 90.1898L34.2066 91.1433L36.5013 83.4915L33.3339 82.5381L31.0352 90.1898Z" fill="#E0E0E0"/>
<path d="M21.1249 83.3902C21.0985 83.7009 21.1715 84.012 21.3334 84.2785C21.4954 84.545 21.7379 84.7532 22.0258 84.8729C21.8222 85.1077 21.6708 85.3831 21.5814 85.6809C21.3996 86.2747 21.8844 87.0706 22.8338 87.3534L30.1058 89.5391L32.2309 82.4165C32.2309 82.4165 30.9987 79.2734 30.9381 78.7805C30.8775 78.2877 31.6047 76.5666 31.7016 76.2353C31.7824 75.9687 30.627 75.4799 29.6816 75.8556C29.4569 75.9437 29.2551 76.0818 29.0918 76.2596C28.7561 76.6203 28.4757 77.0287 28.2596 77.4716C27.95 78.099 27.7975 78.7922 27.8152 79.4916L23.452 78.1745C23.1443 78.0733 22.8107 78.0848 22.5106 78.2069C22.3118 78.2851 22.1366 78.4136 22.0022 78.5797C21.8679 78.7458 21.7788 78.944 21.7438 79.1548C21.7088 79.3656 21.7291 79.5818 21.8026 79.7825C21.8761 79.9831 22.0003 80.1613 22.1632 80.2996C21.8995 80.277 21.636 80.3446 21.4157 80.4914C21.1955 80.6382 21.0317 80.8555 20.9512 81.1076C20.884 81.3985 20.9193 81.7036 21.0511 81.9716C21.1828 82.2395 21.403 82.4537 21.6744 82.5781C21.3976 82.772 21.2019 83.0611 21.1249 83.3902Z" fill="#E0E0E0"/>
</svg>
