<svg width="137" height="42" viewBox="0 0 137 42" fill="none" xmlns="http://www.w3.org/2000/svg">
<path d="M4.8792 22.6928C4.00537 20.5437 3.48169 18.6784 1.38693 18.3886L0.223345 18.2151C-0.125278 17.7472 -0.0649126 16.9353 0.398409 16.7617C1.85478 16.8749 3.88917 16.9353 5.86772 16.9353C7.43577 16.9353 8.60237 16.8749 10.5764 16.7617C10.9854 16.9941 11.0427 17.9268 10.6307 18.2151L9.93498 18.3328C8.13301 18.621 8.07415 18.9108 8.6567 20.6569C9.99384 24.6698 11.6841 28.7415 13.0168 31.7659C13.5404 32.931 13.7744 33.4547 13.9464 33.6252C14.1818 33.4562 14.5893 32.6382 15.0557 31.4158C15.8103 29.4403 17.7903 24.38 18.3683 22.8663C19.1833 20.835 19.4157 19.611 19.4157 19.2609C19.4157 18.7387 19.0686 18.5063 18.3683 18.3901L17.0357 18.2166C16.6871 17.8076 16.7414 16.9956 17.1489 16.7632C18.9569 16.8764 20.4073 16.9368 21.509 16.9368C22.9653 16.9368 23.9508 16.8764 25.5823 16.7632C25.9837 16.9956 26.0486 17.8649 25.6985 18.2166L24.8277 18.3343C22.7872 18.6225 22.2681 20.1362 20.5793 23.3945C19.7674 24.9626 16.1604 33.3958 15.2322 35.7803C14.6452 37.2367 14.0656 38.5678 13.308 40.5478C13.1948 40.7198 12.9624 40.7832 12.7285 40.7832C12.4387 40.7832 12.1444 40.7198 11.9769 40.5478C11.5045 38.9224 10.6322 36.6526 9.76294 34.5021L4.8792 22.6928Z" fill="white"/>
<path d="M29.2457 24.9588C27.7365 24.9588 27.6792 25.072 27.6792 26.5284C27.6792 32.4036 31.1081 37.4065 37.332 37.4065C39.2487 37.4065 40.8786 36.8254 42.6821 34.5572C43.2646 34.3806 43.6676 34.7292 43.7294 35.2559C41.8097 39.2069 37.6233 40.6618 34.5958 40.6618C30.8183 40.6618 27.8543 39.0364 26.1655 36.827C24.4178 34.5587 23.7236 31.824 23.7236 29.2645C23.7236 22.114 28.4338 16.1211 35.4108 16.1211C40.4122 16.1211 43.6676 19.5545 43.6676 23.0467C43.6676 23.8586 43.5544 24.3204 43.4367 24.5559C43.2646 24.903 42.4527 24.9633 40.0078 24.9633H29.2457V24.9588ZM32.8527 23.2127C37.1569 23.2127 38.4397 22.9803 38.9046 22.6317C39.0766 22.517 39.2486 22.2861 39.2486 21.527C39.2486 19.897 38.1485 17.8612 34.7754 17.8612C31.3435 17.8612 28.3749 21.0033 28.3161 22.9229C28.3161 23.0422 28.3161 23.2127 28.7281 23.2127H32.8527Z" fill="white"/>
<path d="M48.6796 23.1515C48.6796 20.8847 48.6796 20.5935 47.1116 19.5476L46.5879 19.196C46.3525 18.9635 46.3525 18.3267 46.6468 18.1516C47.9839 17.6853 51.0642 16.1716 52.5145 15.3008C52.8043 15.3596 52.9854 15.4758 52.9854 15.7083V19.0843C52.9854 19.368 53.0397 19.5476 53.1574 19.6034C55.1933 17.9222 57.4012 16.1142 59.5579 16.1142C61.0067 16.1142 62.1688 17.0454 62.1688 18.4399C62.1688 20.358 60.6007 21.1171 59.6726 21.1171C59.0855 21.1171 58.8018 20.9436 58.3898 20.7081C57.522 20.1271 56.6466 19.7785 55.8317 19.7785C54.9005 19.7785 54.2033 20.3007 53.7369 20.9421C53.1559 21.7555 52.9838 23.4398 52.9838 25.4198V33.3309C52.9838 37.5158 53.097 38.2115 55.3095 38.3896L57.4012 38.5602C57.8133 38.856 57.694 39.843 57.2881 40.015C54.5534 39.8988 52.8722 39.843 50.8348 39.843C48.7415 39.843 46.9924 39.8988 45.4786 40.015C45.0757 39.843 44.9534 38.856 45.3609 38.5602L46.4732 38.3896C48.6223 38.041 48.6781 37.5158 48.6781 33.3309V23.1515H48.6796Z" fill="white"/>
<path d="M66.6739 23.1619C66.6739 20.8951 66.6739 20.6024 65.1043 19.558L64.5806 19.2064C64.3452 18.974 64.3452 18.3371 64.6395 18.162C65.9766 17.6957 69.2893 16.182 70.631 15.3112C70.9208 15.3112 71.1517 15.4259 71.2075 15.6583C71.0943 17.6942 70.9751 20.4846 70.9751 22.8691V33.3428C70.9751 37.5277 71.0943 38.1088 73.1891 38.4016L74.407 38.5721C74.8175 38.8679 74.7013 39.8549 74.2968 40.0269C72.5492 39.9107 70.8634 39.8549 68.826 39.8549C66.7343 39.8549 64.9881 39.9107 63.3582 40.0269C62.9553 39.8549 62.839 38.8679 63.245 38.5721L64.4659 38.4016C66.6181 38.1088 66.6769 37.5277 66.6769 33.3428V23.1619H66.6739ZM71.4444 10.0623C71.4444 12.0982 69.9896 13.0293 68.417 13.0293C66.615 13.0293 65.4515 11.748 65.4515 10.177C65.4515 8.25883 66.9063 7.09375 68.5921 7.09375C70.3397 7.09375 71.4444 8.43088 71.4444 10.0623Z" fill="white"/>
<path d="M90.4139 17.1661C90.9376 18.4428 91.3436 20.3051 91.3436 21.8747C91.1097 22.2852 90.2374 22.4029 89.9431 22.0513C88.9591 19.4902 87.2145 17.8029 84.8314 17.8029C82.5631 17.8029 81.1083 19.2563 81.1083 21.3525C81.1083 23.734 83.5501 25.0183 85.5875 26.1788C88.6648 27.9219 91.5126 29.899 91.5126 34.0326C91.5126 38.4499 87.4469 40.6579 83.1427 40.6579C80.408 40.6579 78.3781 40.0768 76.9188 38.9178C76.4524 37.8085 76.1068 34.9607 76.2215 33.0411C76.5128 32.6924 77.2674 32.6336 77.5617 32.9822C78.5457 36.1816 80.408 38.9721 83.7207 38.9721C85.823 38.9721 87.6204 37.7557 87.6204 35.2535C87.6204 32.5762 85.2948 31.1259 83.1442 29.899C79.7711 27.9823 77.3866 25.9449 77.3866 22.747C77.3866 18.5017 80.8789 16.1172 85.2948 16.1172C87.7321 16.1172 89.8887 16.6997 90.4139 17.1661Z" fill="white"/>
<path d="M133.846 11.4971H122.823V29.0714C122.823 31.8709 120.571 34.1271 117.77 34.1271C114.97 34.1271 112.714 31.8694 112.714 29.0714V11.4971H101.691C98.8372 11.4971 97.7657 13.4605 99.3096 15.8616L114.96 40.197C116.504 42.6011 119.03 42.6011 120.576 40.197L136.227 15.8616C137.773 13.4605 136.701 11.4971 133.846 11.4971Z" fill="white"/>
<path d="M117.768 10.1069C120.568 10.1069 122.821 7.85525 122.821 5.05422C122.821 2.31507 120.569 0 117.768 0C114.969 0 112.712 2.31507 112.712 5.05422C112.712 7.85525 114.969 10.1069 117.768 10.1069Z" fill="white"/>
</svg>
